<?xml version="1.0" encoding="iso-8859-1"?>
<!-- Generator: Adobe Illustrator 18.1.1, SVG Export Plug-In . SVG Version: 6.00 Build 0)  -->
<svg xmlns="http://www.w3.org/2000/svg" xmlns:xlink="http://www.w3.org/1999/xlink" version="1.1" id="Capa_1" x="0px" y="0px" viewBox="0 0 18.623 18.623" style="enable-background:new 0 0 18.623 18.623;" xml:space="preserve" width="512px" height="512px">
<g>
	<g>
		<path d="M14.546,10.756V7.269c-0.012-2.689-1.604-5.26-3.985-5.913c0,0-0.079-1.356-1.249-1.356    C8.124,0,8.065,1.317,8.065,1.317C5.682,1.968,4.109,4.58,4.097,7.269v3.375c0,1.649-0.937,1.935-2.047,3.278h14.523    C15.464,12.579,14.546,12.407,14.546,10.756z" fill="#FFFFFF"/>
		<path d="M10.409,15.825v-0.863c0-0.294-0.238-0.531-0.531-0.531H8.749c-0.294,0-0.532,0.237-0.532,0.531    v0.863c0,0.043,0.015,0.081,0.024,0.12c-0.332,0.281-0.545,0.687-0.545,1.143c0,0.848,0.724,1.535,1.616,1.535    c0.893,0,1.617-0.688,1.617-1.535c0-0.455-0.213-0.859-0.544-1.142C10.394,15.907,10.409,15.868,10.409,15.825z" fill="#FFFFFF"/>
	</g>
</g>
<g>
</g>
<g>
</g>
<g>
</g>
<g>
</g>
<g>
</g>
<g>
</g>
<g>
</g>
<g>
</g>
<g>
</g>
<g>
</g>
<g>
</g>
<g>
</g>
<g>
</g>
<g>
</g>
<g>
</g>
</svg>
